<svg width="120" height="120" viewBox="0 0 120 120" fill="none" xmlns="http://www.w3.org/2000/svg">
  <path d="M60 10C60 10 40 30 40 50C40 70 50 80 60 80C70 80 80 70 80 50C80 30 60 10 60 10Z" fill="#22c55e" opacity="0.2"/>
  <path d="M60 10C60 10 40 30 40 50C40 70 50 80 60 80" stroke="#22c55e" stroke-width="2" stroke-linecap="round"/>
  <path d="M60 10C60 10 80 30 80 50C80 70 70 80 60 80" stroke="#16a34a" stroke-width="2" stroke-linecap="round"/>
  <path d="M60 20L60 80" stroke="#15803d" stroke-width="1.5" stroke-linecap="round"/>
</svg>
